<?xml version="1.0" standalone="no"?>
<!DOCTYPE svg PUBLIC "-//W3C//DTD SVG 20010904//EN"
 "http://www.w3.org/TR/2001/REC-SVG-20010904/DTD/svg10.dtd">
<svg version="1.0" xmlns="http://www.w3.org/2000/svg"
 width="401.000000pt" height="126.000000pt" viewBox="0 0 401.000000 126.000000"
 preserveAspectRatio="xMidYMid meet">

<g transform="translate(0.000000,126.000000) scale(0.100000,-0.100000)"
fill="#000000" stroke="none">
<path d="M3210 1151 c-284 -92 -443 -369 -372 -649 63 -249 269 -411 523 -412
157 0 277 48 385 156 294 293 165 789 -235 908 -75 22 -229 21 -301 -3z m440
-356 l0 -85 -285 0 -285 0 0 85 0 85 285 0 285 0 0 -85z m0 -330 l0 -85 -285
0 -285 0 0 85 0 85 285 0 285 0 0 -85z"/>
<path d="M112 713 l3 -328 250 -3 c154 -2 267 1 293 8 220 54 258 356 57 459
-47 25 -59 26 -227 29 l-178 4 0 79 0 79 -100 0 -100 0 2 -327z m509 -16 c45
-34 46 -92 2 -127 -23 -18 -41 -20 -169 -20 l-144 0 0 80 0 80 148 0 c100 -1
152 -5 163 -13z"/>
<path d="M990 709 l0 -330 278 3 c262 3 279 4 318 25 183 98 183 348 0 446
-37 20 -59 22 -223 25 l-183 4 0 79 0 79 -95 0 -95 0 0 -331z m517 -21 c32
-30 31 -81 -2 -113 -23 -24 -28 -25 -170 -25 l-145 0 0 80 0 80 147 0 c137 0
148 -1 170 -22z"/>
<path d="M1870 710 l0 -330 95 0 95 0 0 63 0 62 77 52 76 52 80 -114 80 -115
119 0 119 0 -33 48 c-18 26 -72 103 -120 171 l-88 124 111 76 111 76 -152 3
-151 3 -112 -79 -112 -79 -3 158 -2 159 -95 0 -95 0 0 -330z"/>
</g>
</svg>
