<?xml version="1.0" standalone="no"?>
<!DOCTYPE svg PUBLIC "-//W3C//DTD SVG 20010904//EN"
 "http://www.w3.org/TR/2001/REC-SVG-20010904/DTD/svg10.dtd">
<svg version="1.0" xmlns="http://www.w3.org/2000/svg"
 width="1592.000000pt" height="410.000000pt" viewBox="0 0 1592.000000 410.000000"
 preserveAspectRatio="xMidYMid meet">

<g transform="translate(0.000000,410.000000) scale(0.100000,-0.100000)"
fill="#000000" stroke="none">
<path d="M12859 2875 c-309 -48 -547 -233 -655 -506 -48 -123 -67 -248 -61
-404 10 -272 93 -466 271 -632 176 -165 439 -244 708 -215 271 29 497 158 628
359 92 140 129 269 137 486 l6 137 -432 0 -431 0 0 -170 0 -170 175 0 c155 0
175 -2 175 -16 0 -80 -87 -190 -176 -224 -74 -27 -186 -36 -266 -20 -219 43
-342 220 -341 490 1 232 87 397 250 477 73 36 81 38 177 38 90 0 108 -3 163
-29 72 -33 139 -99 177 -175 l26 -51 38 16 c20 8 109 45 197 81 88 37 164 70
169 74 5 4 -10 40 -34 81 -55 94 -194 232 -277 276 -189 99 -398 132 -624 97z"/>
<path d="M9830 2005 l0 -845 220 0 220 0 0 845 0 845 -220 0 -220 0 0 -845z"/>
<path d="M784 2827 c-2 -7 -3 -89 -2 -182 l3 -170 178 -3 177 -2 0 -655 0
-655 220 0 220 0 0 655 0 655 178 2 177 3 0 180 0 180 -573 3 c-461 2 -574 0
-578 -11z"/>
<path d="M3390 2000 l0 -840 475 0 475 0 0 185 0 185 -255 0 -255 0 0 145 0
145 240 0 240 0 0 185 0 185 -240 0 -240 0 0 140 0 140 255 0 255 0 0 185 0
185 -475 0 -475 0 0 -840z"/>
<path d="M4906 2825 c-49 -17 -93 -59 -117 -110 -17 -38 -19 -79 -19 -713 0
-585 2 -677 15 -710 27 -63 87 -113 153 -127 l32 -7 0 436 0 436 635 0 635 0
0 -435 c0 -239 3 -435 8 -435 58 0 140 58 173 121 18 37 19 65 19 719 0 548
-3 687 -13 713 -19 44 -87 103 -134 116 -25 7 -261 11 -693 11 -530 -1 -662
-4 -694 -15z"/>
<path d="M6870 2000 l0 -840 393 0 c215 0 419 5 452 10 194 32 335 133 396
287 21 51 24 75 24 193 0 125 -2 139 -26 191 -15 32 -46 76 -69 99 -43 43
-140 95 -197 106 l-33 6 58 57 c68 66 98 124 113 221 32 211 -63 408 -229 470
-96 36 -144 40 -518 40 l-364 0 0 -840z m639 480 c50 -25 75 -69 75 -135 1
-107 -60 -156 -201 -163 l-83 -5 0 168 0 168 84 -6 c56 -4 98 -13 125 -27z
m104 -659 c69 -34 89 -69 85 -153 -3 -55 -8 -72 -28 -94 -47 -51 -102 -67
-242 -72 l-128 -4 0 177 0 177 133 -4 c113 -3 139 -7 180 -27z"/>
<path d="M8330 2001 l0 -841 220 0 220 0 2 319 3 318 204 -318 204 -319 268 0
c148 0 269 2 269 4 0 2 -115 154 -255 337 -140 184 -255 336 -255 340 0 3 36
20 80 38 182 74 271 216 271 435 0 253 -108 412 -338 499 -56 20 -76 21 -475
25 l-418 3 0 -840z m687 470 c54 -31 82 -70 95 -134 30 -148 -77 -247 -269
-247 l-73 0 0 206 0 206 103 -4 c84 -3 109 -8 144 -27z"/>
<path d="M10550 2000 l0 -841 398 3 c384 4 399 4 467 27 229 76 407 226 510
431 212 419 43 922 -380 1135 -155 78 -159 78 -602 83 l-393 3 0 -841z m715
441 c176 -63 281 -207 292 -403 10 -158 -33 -285 -128 -380 -88 -88 -211 -131
-360 -126 l-84 3 -3 455 c-1 250 0 461 3 469 9 22 204 10 280 -18z"/>
<path d="M14090 2000 l0 -840 475 0 475 0 0 185 0 185 -255 0 -255 0 0 145 0
145 243 2 242 3 0 180 0 180 -242 3 -243 2 0 140 0 140 255 0 255 0 0 185 0
185 -475 0 -475 0 0 -840z"/>
<path d="M1860 1595 l0 -435 180 0 180 0 2 288 3 287 260 0 260 0 3 -287 2
-288 180 0 180 0 0 435 0 435 -625 0 -625 0 0 -435z"/>
<path d="M5350 1445 l0 -285 255 0 255 0 0 285 0 285 -255 0 -255 0 0 -285z"/>
<path d="M0 10 c0 -7 2660 -10 7960 -10 5300 0 7960 3 7960 10 0 7 -2660 10
-7960 10 -5300 0 -7960 -3 -7960 -10z"/>
</g>
</svg>
